<?xml version="1.0" encoding="utf-8"?>
<!-- Generator: Adobe Illustrator 27.8.0, SVG Export Plug-In . SVG Version: 6.00 Build 0)  -->
<svg version="1.1" id="Option_1" xmlns="http://www.w3.org/2000/svg" xmlns:xlink="http://www.w3.org/1999/xlink" x="0px" y="0px"
	 width="400px" height="400px" viewBox="0 0 400 400" style="enable-background:new 0 0 400 400;" xml:space="preserve">
<style type="text/css">
	.st0{fill:#FFFFFF;}
	.st1{fill:#2095D2;}
	.st2{fill:#333F48;}
</style>
<g>
	<circle class="st0" cx="200" cy="200" r="179.5"/>
	<path class="st1" d="M200,20.5V38c22.4,0,43.7,4.5,63.1,12.7c29,12.3,53.8,32.8,71.3,58.7c8.7,12.9,15.6,27.2,20.4,42.4
		c4.7,15.2,7.3,31.4,7.3,48.2c0,22.4-4.5,43.7-12.7,63.1c-12.3,29-32.8,53.8-58.7,71.3c-12.9,8.7-27.2,15.6-42.4,20.4
		c-15.2,4.7-31.4,7.3-48.2,7.3c-22.4,0-43.7-4.5-63.1-12.7c-29-12.3-53.8-32.8-71.3-58.7c-8.7-12.9-15.6-27.2-20.4-42.4
		C40.6,233,38,216.8,38,200c0-22.4,4.5-43.7,12.7-63.1c12.3-29,32.8-53.8,58.7-71.3c12.9-8.7,27.2-15.6,42.4-20.4
		C167,40.6,183.2,38,200,38L200,20.5V3c-27.2,0-53.1,5.5-76.7,15.5c-35.4,15-65.4,39.9-86.7,71.4c-10.6,15.7-19,33.1-24.8,51.6
		C6.1,159.9,3,179.6,3,200c0,27.2,5.5,53.1,15.5,76.7c15,35.4,39.9,65.4,71.4,86.7c15.7,10.6,33.1,19,51.6,24.8
		c18.5,5.8,38.2,8.9,58.6,8.9c27.2,0,53.1-5.5,76.7-15.5c35.4-15,65.4-39.9,86.7-71.4c10.6-15.7,19-33.1,24.8-51.6
		c5.8-18.5,8.9-38.2,8.9-58.6c0-27.2-5.5-53.1-15.5-76.7c-15-35.4-39.9-65.4-71.4-86.7c-15.7-10.6-33.1-19-51.6-24.8
		C240.1,6.1,220.4,3,200,3V20.5z"/>
</g>
<path class="st2" d="M90,129.9h70v16.6h-51.4v37h49.5v16.6h-49.5v37.7h53v16.6H90L90,129.9L90,129.9z"/>
<path class="st2" d="M307.4,261.7c-3.6,1.5-7.5,2.2-11.6,2.2c-5.1,0-11.5-1.1-19.1-3.3c-7.7-2.2-13-4.4-16-6.6
	c14.8-3.4,26.7-10.7,35.8-21.9c9-11.3,13.5-24.6,13.5-40.1c0-18.4-6.3-33.6-18.8-45.7c-12.5-12-28.3-18-47.5-18s-35,6-47.5,18
	s-18.8,27.2-18.8,45.7c0,15.9,4.7,29.5,14,40.8c9.3,11.3,21.9,18.5,37.7,21.6c6.2,6.1,15.9,11.9,29,17.3c13.1,5.4,23.7,8.1,31.9,7.9
	l18.9-15.9l0,0L307.4,261.7z M243,238.2c-13.6,0-24.7-4.3-33.3-12.8c-8.7-8.5-13-19.1-13-33s4.3-25,13-33.5
	c8.7-8.5,20-12.8,34.1-12.8l0,0c13.9,0,25.3,4.3,34,12.8c8.7,8.5,13.1,19.3,13.1,33.1c0,13.8-4.4,25-13.2,33.4
	C268.8,233.9,257.3,238.2,243,238.2z"/>
</svg>
